<svg width="1600" height="1000" viewBox="0 0 1600 1000" fill="none" xmlns="http://www.w3.org/2000/svg">
<g clip-path="url(#clip0_332_38)">
<g filter="url(#filter0_d_332_38)">
<path d="M1600 1000H0V0H1600V1000Z" fill="url(#paint0_radial_332_38)"/>
</g>
<path d="M-26.032 -87.6295L130.075 -305.342C319.451 -569.454 660.383 -676.935 966.991 -569.186L1338.5 -438.629C1566.46 -358.517 1724.93 -150.485 1741.62 90.5703L1743.72 120.973C1750.11 213.327 1782.12 302.072 1836.15 377.246L1955.96 543.951C2038.76 659.156 2019.84 818.525 1912.37 911.146C1753.49 1048.08 1505.96 962.839 1465.07 757.118L1457.04 716.695C1417.78 519.149 1197.84 416.724 1021.37 513.804L676.214 703.682C550.55 772.814 402.619 789.36 264.786 749.7C-95.4333 646.052 -244.453 216.99 -26.032 -87.6295Z" fill="url(#paint1_radial_332_38)"/>
</g>
<defs>
<filter id="filter0_d_332_38" x="-32" y="-24" width="1664" height="1064" filterUnits="userSpaceOnUse" color-interpolation-filters="sRGB">
<feFlood flood-opacity="0" result="BackgroundImageFix"/>
<feColorMatrix in="SourceAlpha" type="matrix" values="0 0 0 0 0 0 0 0 0 0 0 0 0 0 0 0 0 0 127 0" result="hardAlpha"/>
<feOffset dy="8"/>
<feGaussianBlur stdDeviation="16"/>
<feComposite in2="hardAlpha" operator="out"/>
<feColorMatrix type="matrix" values="0 0 0 0 0 0 0 0 0 0 0 0 0 0 0 0 0 0 0.05 0"/>
<feBlend mode="normal" in2="BackgroundImageFix" result="effect1_dropShadow_332_38"/>
<feBlend mode="normal" in="SourceGraphic" in2="effect1_dropShadow_332_38" result="shape"/>
</filter>
<radialGradient id="paint0_radial_332_38" cx="0" cy="0" r="1" gradientUnits="userSpaceOnUse" gradientTransform="translate(800 500) rotate(90) scale(500 800)">
<stop stop-color="#46A6FF"/>
<stop offset="1" stop-color="#0068C8"/>
</radialGradient>
<radialGradient id="paint1_radial_332_38" cx="0" cy="0" r="1" gradientUnits="userSpaceOnUse" gradientTransform="translate(-527.25 304.25) rotate(11.0067) scale(2557.29 951.353)">
<stop stop-color="#A6D4FF"/>
<stop offset="0.537981" stop-color="#46A6FF"/>
<stop offset="1" stop-color="#0085FF"/>
</radialGradient>
<clipPath id="clip0_332_38">
<rect width="1600" height="1000" fill="white"/>
</clipPath>
</defs>
</svg>
