<svg width="25" height="25" viewBox="0 0 25 25" fill="none" xmlns="http://www.w3.org/2000/svg">
<path fill-rule="evenodd" clip-rule="evenodd" d="M14.5285 0.889984L14.5283 0.889238L14.5282 0.888601L14.528 0.887791L14.528 0.887653L14.5279 0.887424L14.5279 0.887151C14.4776 0.639438 14.3821 0.408962 14.2505 0.202723C18.0864 0.891132 21.2897 3.4024 22.9319 6.80795C22.8006 6.79648 22.6667 6.79597 22.5316 6.80721L22.5313 6.80724L22.531 6.80726L22.5305 6.80731L22.53 6.80735L22.5294 6.8074L22.5286 6.80747L22.5284 6.80747L22.5028 6.80939C22.4776 6.81123 22.4364 6.81407 22.3809 6.81739C22.2697 6.82403 22.1023 6.83252 21.8921 6.83868C21.4689 6.85108 20.8866 6.85359 20.2489 6.81551C18.8438 6.73161 17.6618 6.47406 17.0814 6.09061C16.4497 5.67322 15.775 4.59854 15.2334 3.20795C14.9882 2.57842 14.8089 1.98734 14.6911 1.55238C14.6326 1.33639 14.5903 1.16264 14.5633 1.04649C14.5499 0.988506 14.5403 0.945148 14.5345 0.918357L14.5287 0.890929L14.5285 0.889984ZM24.0319 10.5793C23.9844 10.6119 23.9353 10.6429 23.8846 10.6722L23.8843 10.6723L23.8833 10.6729L23.883 10.6731L23.8828 10.6732L23.8823 10.6735L23.8627 10.685C23.8432 10.6965 23.8114 10.7155 23.7686 10.7415C23.6831 10.7936 23.5547 10.8732 23.3956 10.9765C23.0754 11.1845 22.6414 11.4816 22.1859 11.837C21.185 12.6179 20.4234 13.4192 20.1761 14.0078C19.8754 14.7232 19.97 16.0363 20.3952 17.5555C20.5877 18.2431 20.8149 18.8607 20.9951 19.3077C21.0846 19.5297 21.161 19.7058 21.2133 19.823C21.215 19.8268 21.2167 19.8306 21.2184 19.8343C23.0249 17.7339 24.1167 15.0012 24.1167 12.0136C24.1167 11.5282 24.0879 11.0496 24.0319 10.5793ZM17.8913 22.5353L12.3503 19.9231L6.5606 22.6526C8.22181 23.5219 10.1118 24.0136 12.1167 24.0136C14.21 24.0136 16.1781 23.4776 17.8913 22.5353ZM3.32954 20.1859C3.35369 20.1177 3.38174 20.0502 3.41374 19.9836L3.41389 19.9833L3.4146 19.9818L3.41494 19.9811L3.41561 19.9797L3.42862 19.952C3.44117 19.925 3.46121 19.8815 3.48735 19.823C3.5397 19.7058 3.61606 19.5297 3.70556 19.3077C3.88577 18.8607 4.11298 18.2431 4.30544 17.5555C4.73064 16.0363 4.82525 14.7232 4.52462 14.0078C4.27729 13.4192 3.51569 12.6179 2.51479 11.837C2.05925 11.4816 1.6253 11.1845 1.30504 10.9765C1.14596 10.8732 1.01761 10.7936 0.932041 10.7415C0.889321 10.7155 0.857464 10.6965 0.837992 10.685L0.81833 10.6735L0.816103 10.6722C0.596432 10.5453 0.407161 10.3869 0.251899 10.2063C0.162859 10.7957 0.116699 11.3993 0.116699 12.0136C0.116699 15.1709 1.33606 18.0434 3.32954 20.1859ZM1.25143 6.91317C2.95053 3.29991 6.39894 0.671987 10.5052 0.12085C10.345 0.347326 10.2298 0.606219 10.1728 0.887303L10.1724 0.889238L10.172 0.890929L10.1662 0.918357C10.1604 0.945148 10.1508 0.988506 10.1373 1.04649C10.1104 1.16264 10.068 1.33639 10.0095 1.55238C9.89175 1.98734 9.71247 2.57842 9.46729 3.20795C8.92568 4.59854 8.25094 5.67322 7.61924 6.09061C7.03892 6.47406 5.8569 6.73161 4.45177 6.81551C3.81403 6.85359 3.23182 6.85108 2.80854 6.83868C2.59833 6.83252 2.43092 6.82403 2.31977 6.81739C2.26427 6.81407 2.22306 6.81123 2.19782 6.80939L2.17225 6.80747L2.17132 6.8074L2.17024 6.80731L2.16942 6.80724L2.16907 6.80721C1.85064 6.78072 1.53918 6.81949 1.25143 6.91317ZM2.17132 6.8074C2.17169 6.80751 2.17091 6.81978 1.97423 8.88958L2.17208 6.80747L2.17132 6.8074ZM7.46684 10.6107C8.40401 10.3899 9.35648 10.0481 10.164 9.51448C11.0721 8.91449 11.7888 8.0788 12.3503 7.21046C12.9119 8.0788 13.6286 8.91449 14.5366 9.51448C15.3442 10.0481 16.2967 10.3899 17.2338 10.6107C16.7586 11.1726 16.3352 11.7976 16.0536 12.4677C15.465 13.8684 15.4932 15.4586 15.7103 16.8327L13.3419 15.7161C12.7177 15.4219 11.983 15.4219 11.3588 15.7161L8.99036 16.8327C9.20751 15.4586 9.23566 13.8684 8.64704 12.4677C8.36545 11.7976 7.9421 11.1726 7.46684 10.6107Z" fill="black"/>
</svg>
